<svg width="21" height="20" viewBox="0 0 21 20" fill="none" xmlns="http://www.w3.org/2000/svg">
<path d="M10.3109 1.7394C12.9046 1.7394 13.2118 1.74906 14.2364 1.79548C14.8525 1.80297 15.4627 1.91538 16.0405 2.12783C16.4595 2.28841 16.8401 2.5344 17.1576 2.84997C17.4752 3.16554 17.7228 3.54369 17.8844 3.96008C18.0981 4.53427 18.2113 5.14063 18.2188 5.75281C18.2651 6.77098 18.2752 7.07621 18.2752 9.65359C18.2752 12.231 18.2655 12.5362 18.2188 13.5544C18.2113 14.1666 18.0981 14.7729 17.8844 15.3471C17.7228 15.7635 17.4752 16.1416 17.1576 16.4572C16.8401 16.7728 16.4595 17.0188 16.0405 17.1794C15.4627 17.3918 14.8525 17.5042 14.2364 17.5117C13.2122 17.5577 12.9051 17.5678 10.3109 17.5678C7.71673 17.5678 7.40957 17.5581 6.38541 17.5117C5.76935 17.5042 5.15915 17.3918 4.58133 17.1794C4.1623 17.0188 3.78175 16.7728 3.46418 16.4572C3.14662 16.1416 2.89906 15.7635 2.73746 15.3471C2.52368 14.7729 2.41055 14.1666 2.40301 13.5544C2.35676 12.5362 2.34658 12.231 2.34658 9.65359C2.34658 7.07621 2.35629 6.77098 2.40301 5.75281C2.41055 5.14063 2.52368 4.53427 2.73746 3.96008C2.89906 3.54369 3.14662 3.16554 3.46418 2.84997C3.78175 2.5344 4.1623 2.28841 4.58133 2.12783C5.15915 1.91538 5.76935 1.80297 6.38541 1.79548C7.41004 1.74952 7.71719 1.7394 10.3109 1.7394ZM10.3109 0C7.67417 0 7.34204 0.0110321 6.30585 0.0579188C5.49958 0.0738547 4.70188 0.225553 3.94666 0.50656C3.29881 0.749114 2.71202 1.12922 2.22723 1.62035C1.73254 2.10226 1.3497 2.68568 1.10546 3.32987C0.822675 4.08033 0.670016 4.87302 0.653979 5.6742C0.607721 6.70295 0.596619 7.033 0.596619 9.65313C0.596619 12.2733 0.607721 12.6033 0.654904 13.633C0.670941 14.4342 0.8236 15.2269 1.10639 15.9773C1.35036 16.6214 1.73288 17.2048 2.22723 17.6868C2.71229 18.1781 3.2994 18.5582 3.94759 18.8006C4.7028 19.0816 5.50051 19.2333 6.30677 19.2493C7.34296 19.2952 7.67371 19.3072 10.3118 19.3072C12.95 19.3072 13.2807 19.2962 14.3169 19.2493C15.1232 19.2333 15.9209 19.0816 16.6761 18.8006C17.3212 18.5521 17.907 18.1726 18.3961 17.6863C18.8852 17.2 19.2667 16.6176 19.5164 15.9764C19.7991 15.2259 19.9518 14.4333 19.9678 13.6321C20.0141 12.6033 20.0252 12.2733 20.0252 9.65313C20.0252 7.033 20.0141 6.70295 19.9669 5.67329C19.9509 4.8721 19.7982 4.07941 19.5154 3.32895C19.2715 2.68485 18.8889 2.10143 18.3946 1.61943C17.9095 1.12819 17.3224 0.748076 16.6742 0.50564C15.919 0.224633 15.1213 0.0729354 14.315 0.0569995C13.2798 0.0110322 12.9476 0 10.3109 0Z" fill="#4BB7BB"/>
<path d="M10.3093 4.69531C9.32263 4.69531 8.35815 4.98604 7.53779 5.53074C6.71743 6.07543 6.07804 6.84963 5.70047 7.75542C5.3229 8.66122 5.22411 9.65793 5.41659 10.6195C5.60908 11.5811 6.08419 12.4644 6.78185 13.1576C7.4795 13.8509 8.36837 14.323 9.33605 14.5143C10.3037 14.7056 11.3068 14.6074 12.2183 14.2322C13.1298 13.857 13.9089 13.2216 14.4571 12.4065C15.0052 11.5913 15.2978 10.6329 15.2978 9.65243C15.2978 8.33772 14.7722 7.07686 13.8367 6.14722C12.9011 5.21758 11.6323 4.69531 10.3093 4.69531ZM10.3093 12.8701C9.66883 12.8701 9.04277 12.6814 8.51027 12.3279C7.97777 11.9743 7.56273 11.4718 7.31765 10.8838C7.07257 10.2958 7.00844 9.64886 7.13338 9.02468C7.25833 8.40051 7.56673 7.82717 8.01958 7.37716C8.47244 6.92716 9.04941 6.6207 9.67754 6.49654C10.3057 6.37239 10.9567 6.43611 11.5484 6.67965C12.1401 6.92319 12.6458 7.33561 13.0016 7.86476C13.3574 8.39391 13.5474 9.01602 13.5474 9.65243C13.5474 10.5058 13.2062 11.3243 12.5989 11.9277C11.9917 12.5311 11.1681 12.8701 10.3093 12.8701Z" fill="#4BB7BB"/>
<path d="M15.4962 5.65855C16.14 5.65855 16.6619 5.13993 16.6619 4.50017C16.6619 3.86042 16.14 3.3418 15.4962 3.3418C14.8524 3.3418 14.3305 3.86042 14.3305 4.50017C14.3305 5.13993 14.8524 5.65855 15.4962 5.65855Z" fill="#4BB7BB"/>
</svg>
