<svg width="132" height="32" viewBox="0 0 132 32" fill="none" xmlns="http://www.w3.org/2000/svg">
<g clip-path="url(#clip0_2001_95)">
<path d="M45.284 29.2326C43.118 29.2326 41.312 28.7809 39.8658 27.8712C38.4197 26.9614 37.4536 25.7336 36.961 24.1813L41.8361 21.3376C42.4992 23.0426 43.699 23.895 45.4293 23.895C46.7238 23.895 47.3679 23.5515 47.3679 22.8581C47.3679 22.6672 47.3174 22.4954 47.2227 22.3428C47.128 22.1901 46.9448 22.0565 46.6796 21.942C46.4144 21.8274 46.1807 21.7384 45.9787 21.6684C45.7766 21.5984 45.4293 21.503 44.9367 21.3694C44.4441 21.2358 44.0716 21.1276 43.8253 21.0513C39.8532 19.8426 37.8703 17.6923 37.8703 14.5877C37.8703 12.7491 38.5334 11.2286 39.8532 10.0199C41.173 8.81115 42.9096 8.21313 45.0567 8.21313C46.7491 8.21313 48.2646 8.61393 49.6034 9.42188C50.9422 10.2235 51.9273 11.3877 52.5524 12.8954L47.8226 15.6819C47.2732 14.2632 46.3575 13.5571 45.0883 13.5571C44.5957 13.5571 44.2168 13.6589 43.9642 13.8561C43.7116 14.0533 43.579 14.3078 43.579 14.6195C43.579 15.0394 43.8 15.3638 44.2484 15.5992C44.6967 15.8282 45.5556 16.1273 46.8248 16.4899C47.7721 16.7762 48.5551 17.0497 49.1614 17.3105C49.7676 17.5714 50.4054 17.934 51.0684 18.4048C51.7315 18.8756 52.2304 19.4799 52.5651 20.2115C52.8998 20.9495 53.0639 21.8147 53.0639 22.8135C53.0639 24.862 52.363 26.4461 50.9674 27.5658C49.5718 28.6855 47.6774 29.2453 45.2777 29.2453L45.284 29.2326Z" fill="#4BB7BB"/>
<path d="M65.1822 8.67114H70.8845V28.7745H65.1822V21.363H60.3387V28.7745H54.6364V8.67114H60.3387V15.79H65.1822V8.67114Z" fill="#4BB7BB"/>
<path d="M91.1111 26.2044C89.0714 28.2274 86.5644 29.2326 83.6027 29.2326C80.641 29.2326 78.134 28.2211 76.0943 26.2044C74.0546 24.1877 73.0316 21.6939 73.0316 18.7229C73.0316 15.7519 74.0546 13.2644 76.0943 11.2414C78.134 9.22467 80.641 8.21313 83.6027 8.21313C86.5644 8.21313 89.0714 9.22467 91.1111 11.2414C93.1508 13.2644 94.1738 15.7519 94.1738 18.7229C94.1738 21.6939 93.1508 24.1813 91.1111 26.2044ZM80.1043 22.2155C81.0263 23.1443 82.1882 23.6088 83.5964 23.6088C85.0046 23.6088 86.1666 23.1443 87.0885 22.2155C88.0105 21.2867 88.4715 20.1225 88.4715 18.7292C88.4715 17.336 88.0105 16.1718 87.0885 15.243C86.1666 14.3141 85.0046 13.8497 83.5964 13.8497C82.1882 13.8497 81.0263 14.3141 80.1043 15.243C79.1823 16.1718 78.7213 17.336 78.7213 18.7292C78.7213 20.1225 79.1823 21.2931 80.1043 22.2155Z" fill="#4BB7BB"/>
<path d="M113.687 26.2044C111.641 28.2274 109.14 29.2326 106.172 29.2326C103.204 29.2326 100.703 28.2211 98.6637 26.2044C96.624 24.1877 95.601 21.6939 95.601 18.7229C95.601 15.7519 96.624 13.2644 98.6637 11.2414C100.703 9.22467 103.21 8.21313 106.172 8.21313C109.134 8.21313 111.641 9.22467 113.687 11.2414C115.727 13.2644 116.75 15.7519 116.75 18.7229C116.75 21.6939 115.727 24.1813 113.687 26.2044ZM102.68 22.2155C103.602 23.1443 104.764 23.6088 106.172 23.6088C107.58 23.6088 108.742 23.1443 109.664 22.2155C110.586 21.2867 111.047 20.1225 111.047 18.7292C111.047 17.336 110.586 16.1718 109.664 15.243C108.742 14.3141 107.58 13.8497 106.172 13.8497C104.764 13.8497 103.602 14.3141 102.68 15.243C101.758 16.1718 101.297 17.336 101.297 18.7292C101.297 20.1225 101.758 21.2931 102.68 22.2155Z" fill="#4BB7BB"/>
<path d="M132 8.67114V14.2441H127.295V28.7745H121.593V14.2441H116.888V8.67114H131.994H132Z" fill="#4BB7BB"/>
<path d="M35.0794 7.08072C34.8394 6.41272 34.6436 5.96103 34.4479 5.6175C33.8859 4.61869 32.8692 3.91252 31.8335 3.91889C30.5011 3.97614 29.2318 5.09582 29.2318 6.53996C29.2318 7.83141 30.1538 8.9002 31.3725 9.1165C30.8989 9.56183 30.2232 10.0899 29.3328 10.5288C27.6531 11.3559 26.087 11.4195 25.2282 11.3877C24.5335 11.2604 22.3107 10.7515 20.7572 8.72207C20.0942 7.85686 19.7658 6.98529 19.589 6.35547C20.6499 5.78926 21.3761 4.66958 21.3761 3.37177C21.3761 1.50775 19.8794 0 18.0292 0C16.1789 0 14.6823 1.50775 14.6823 3.37177C14.6823 4.66322 15.4085 5.78926 16.4694 6.35547C16.2989 6.98529 15.9642 7.85686 15.3012 8.72207C13.7224 10.7769 11.4301 11.2414 10.7544 11.3559C9.91456 11.3877 8.38004 11.3304 6.71923 10.5225C5.82252 10.0835 5.14682 9.55547 4.67952 9.11014C5.89829 8.89384 6.82027 7.82505 6.82027 6.5336C6.82027 5.08946 5.55098 3.96978 4.21854 3.91252C3.17658 3.91252 2.1662 4.61233 1.60417 5.61113C1.41473 5.94831 1.21265 6.4 0.972686 7.07435C-1.66693 14.4414 1.87571 21.5793 2.30513 22.4064C3.08186 23.9141 5.772 28.959 11.7017 31.4274C12.3142 31.6819 13.2299 31.8728 14.3097 32L14.2718 23.1571H9.66828V20.2433L14.3855 16.3245H22.0518V31.9555C22.999 31.8282 23.801 31.6501 24.3504 31.4211C30.2801 28.9527 32.9702 23.9141 33.7469 22.4C34.17 21.573 37.719 14.435 35.0794 7.06799V7.08072Z" fill="#4BB7BB"/>
<path d="M18.0227 6.76896C19.8746 6.76896 21.3759 5.25652 21.3759 3.39083C21.3759 1.52514 19.8746 0.0126953 18.0227 0.0126953C16.1708 0.0126953 14.6695 1.52514 14.6695 3.39083C14.6695 5.25652 16.1708 6.76896 18.0227 6.76896Z" fill="#F97615"/>
<path d="M31.8081 9.13558C33.245 9.13558 34.4098 7.96209 34.4098 6.51451C34.4098 5.06693 33.245 3.89343 31.8081 3.89343C30.3712 3.89343 29.2064 5.06693 29.2064 6.51451C29.2064 7.96209 30.3712 9.13558 31.8081 9.13558Z" fill="#F97615"/>
<path d="M4.23729 9.13558C5.67419 9.13558 6.83902 7.96209 6.83902 6.51451C6.83902 5.06693 5.67419 3.89343 4.23729 3.89343C2.80039 3.89343 1.63556 5.06693 1.63556 6.51451C1.63556 7.96209 2.80039 9.13558 4.23729 9.13558Z" fill="#F97615"/>
</g>
<defs>
<clipPath id="clip0_2001_95">
<rect width="132" height="32" fill="white"/>
</clipPath>
</defs>
</svg>
