<svg width="19" height="19" viewBox="0 0 19 19" fill="none" xmlns="http://www.w3.org/2000/svg">
<path fill-rule="evenodd" clip-rule="evenodd" d="M9.70773 0C4.55827 0 0.415466 4.11672 0.415466 9.23377C0.415466 13.312 3.08699 16.7747 6.76518 18.0058C7.22979 18.0828 7.38466 17.8135 7.38466 17.5442C7.38466 17.3133 7.38466 16.7362 7.38466 15.9667C4.79057 16.5438 4.24852 14.7356 4.24852 14.7356C3.82263 13.6583 3.20314 13.389 3.20314 13.389C2.35135 12.8119 3.28058 12.8119 3.28058 12.8119C4.20981 12.8888 4.71314 13.7737 4.71314 13.7737C5.52621 15.1972 6.88133 14.774 7.42338 14.5432C7.50082 13.9276 7.73312 13.5429 8.00415 13.312C5.95211 13.0812 3.78391 12.2732 3.78391 8.7336C3.78391 7.73328 4.13237 6.88685 4.75186 6.27127C4.67442 6.04042 4.32596 5.11704 4.82929 3.80893C4.82929 3.80893 5.60365 3.57808 7.38466 4.77078C8.1203 4.57841 8.93337 4.46299 9.70773 4.46299C10.4821 4.46299 11.2952 4.57841 12.0308 4.77078C13.8118 3.57808 14.5862 3.80893 14.5862 3.80893C15.0895 5.07857 14.7798 6.00195 14.6636 6.27127C15.2444 6.92532 15.6315 7.73328 15.6315 8.7336C15.6315 12.2732 13.4634 13.0427 11.3726 13.2735C11.7211 13.5429 11.9921 14.12 11.9921 14.9664C11.9921 16.1976 11.9921 17.1979 11.9921 17.5057C11.9921 17.7365 12.1469 18.0443 12.6503 17.9674C16.3285 16.7747 19 13.312 19 9.23377C19 4.11672 14.8572 0 9.70773 0Z" fill="#4BB7BB"/>
</svg>
