<svg width="17" height="14" viewBox="0 0 17 14" fill="none" xmlns="http://www.w3.org/2000/svg">
<path d="M16.7462 2.35408C16.1453 2.61946 15.511 2.78532 14.8434 2.88484C15.511 2.48677 16.0451 1.8565 16.2788 1.09353C15.6445 1.45843 14.9435 1.72381 14.1757 1.88967C13.5748 1.2594 12.7069 0.861328 11.7722 0.861328C9.96953 0.861328 8.5007 2.32091 8.5007 4.11221C8.5007 4.37759 8.53409 4.6098 8.60085 4.842C5.89687 4.70931 3.45995 3.41559 1.82422 1.42526C1.55716 1.92284 1.39024 2.4536 1.39024 3.0507C1.39024 4.17856 1.95775 5.17373 2.85907 5.77083C2.32495 5.73765 1.82422 5.60497 1.35686 5.37276V5.40593C1.35686 6.9982 2.49186 8.32509 3.99407 8.62364C3.72701 8.68999 3.42657 8.72316 3.12613 8.72316C2.92584 8.72316 2.69216 8.68999 2.49186 8.65682C2.92584 9.95053 4.1276 10.9125 5.56305 10.9125C4.42805 11.775 3.02598 12.3058 1.49039 12.3058C1.22333 12.3058 0.956272 12.3058 0.722595 12.2726C2.19142 13.2014 3.89393 13.7322 5.76334 13.7322C11.8056 13.7322 15.1104 8.75633 15.1104 4.44393C15.1104 4.31125 15.1104 4.14538 15.1104 4.0127C15.7447 3.58146 16.3122 3.01753 16.7462 2.35408Z" fill="#4BB7BB"/>
</svg>
